<?xml version="1.0" encoding="UTF-8"?>
<level>
  <owner>Fistachka</owner>
  <repo>elimyaso2</repo>
  <version>v1.0.1</version>
  <next number="1" owner="Fistachka" repo="elimyaso3"/>
  <readme>
    <ru>d4f0b959319cadb54a39906d83d2de30d8ac4a20be6075054ea5a868c1dd3f29</ru>
    <en>4122236cab7592000b6109682a843b20f80102b4b89fc6e8fc5d13abf567bb4c</en>
  </readme>
  <license>b1b99f5538d1fd3702219bff50c665196dfa42f6ee755c37fe41a6178d6bc6e5</license>
  <exercise number="1">
    <scale>minor</scale>
    <bpm>168</bpm>
    <lowestNote>6</lowestNote>
    <tonalities>10</tonalities>
    <video name="1t.mp4" size="1809660" type="video/mp4" volume="0.5">cffd346a6d9297951792209c1ceb664a81cacd288259cd674a5ea7a141bb5536</video>
    <notes>
      <note number="1" values="18" ticks="215" durationTicks="49" ppq="96" velocity="0.843"/>
      <note number="2" values="18" ticks="312" durationTicks="47" ppq="96" velocity="0.913"/>
      <note number="3" values="18" ticks="408" durationTicks="49" ppq="96" velocity="0.834"/>
      <note number="4" values="7" ticks="504" durationTicks="49" ppq="96" velocity="0.876"/>
      <note number="5" values="38" ticks="553" durationTicks="49" ppq="96" velocity="0.891"/>
      <note number="6" values="18" ticks="649" durationTicks="49" ppq="96" velocity="0.833"/>
    </notes>
  </exercise>
  <exercise number="2">
    <scale>minor</scale>
    <bpm>168</bpm>
    <lowestNote>6</lowestNote>
    <tonalities>10</tonalities>
    <video name="2t.mp4" size="1941625" type="video/mp4" volume="0.5">b0aa84e44715e495322c0a0d5c11819587afb18400ea0b965be0eef3a532a6f7</video>
    <notes>
      <note number="1" values="18" ticks="241" durationTicks="49" ppq="96" velocity="0.843"/>
      <note number="2" values="18" ticks="338" durationTicks="47" ppq="96" velocity="0.906"/>
      <note number="3" values="18" ticks="434" durationTicks="49" ppq="96" velocity="0.827"/>
      <note number="4" values="7" ticks="529" durationTicks="72" ppq="96" velocity="0.906"/>
      <note number="5" values="38" ticks="626" durationTicks="74" ppq="96" velocity="0.835"/>
      <note number="6" values="18" ticks="770" durationTicks="69" ppq="96" velocity="0.924"/>
    </notes>
  </exercise>
  <exercise number="3">
    <scale>minor</scale>
    <bpm>168</bpm>
    <lowestNote>6</lowestNote>
    <tonalities>10</tonalities>
    <video name="3t.mp4" size="1786834" type="video/mp4" volume="0.5">2d13e3aea0fefd9401b29d7e1673ff0b5461ab66651c8a678699a6a9cf6fe2a2</video>
    <notes>
      <note number="1" values="28" ticks="128" durationTicks="74" ppq="96" velocity="0.843"/>
      <note number="2" values="28" ticks="226" durationTicks="73" ppq="96" velocity="0.906"/>
      <note number="3" values="28" ticks="322" durationTicks="93" ppq="96" velocity="0.942"/>
      <note number="4" values="28" ticks="420" durationTicks="49" ppq="96" velocity="0.867"/>
      <note number="5" values="28" ticks="515" durationTicks="54" ppq="96" velocity="0.906"/>
      <note number="6" values="38" ticks="562" durationTicks="97" ppq="96" velocity="0.832"/>
      <note number="7" values="28" ticks="658" durationTicks="95" ppq="96" velocity="0.922"/>
    </notes>
  </exercise>
  <exercise number="4">
    <scale>minor</scale>
    <bpm>168</bpm>
    <lowestNote>6</lowestNote>
    <tonalities>10</tonalities>
    <video name="4t.mp4" size="1730024" type="video/mp4" volume="0.5">7f0147a4bc764e1d95a2893ffb3880b9db31d4f7682819b90e65124c3cdb047f</video>
    <notes>
      <note number="1" values="7" ticks="93" durationTicks="49" ppq="96" velocity="0.843"/>
      <note number="2" values="38" ticks="226" durationTicks="123" ppq="96" velocity="0.906"/>
      <note number="3" values="48" ticks="408" durationTicks="100" ppq="96" velocity="0.827"/>
      <note number="4" values="58" ticks="577" durationTicks="101" ppq="96" velocity="0.884"/>
    </notes>
  </exercise>
  <exercise number="5">
    <scale>minor</scale>
    <bpm>168</bpm>
    <lowestNote>6</lowestNote>
    <tonalities>10</tonalities>
    <video name="5t.mp4" size="2175991" type="video/mp4" volume="0.5">d7ed7e496ed6d162b8851ce1dfa3ed1d26123832b80012fda29ad8fbaef6e757</video>
    <notes>
      <note number="1" values="48" ticks="115" durationTicks="51" ppq="96" velocity="0.843"/>
      <note number="2" values="58" ticks="211" durationTicks="49" ppq="96" velocity="0.906"/>
      <note number="3" values="68" ticks="308" durationTicks="67" ppq="96" velocity="0.869"/>
      <note number="4" values="68" ticks="402" durationTicks="71" ppq="96" velocity="0.919"/>
      <note number="5" values="68" ticks="500" durationTicks="49" ppq="96" velocity="0.864"/>
      <note number="6" values="58" ticks="549" durationTicks="60" ppq="96" velocity="0.894"/>
      <note number="7" values="58" ticks="645" durationTicks="97" ppq="96" velocity="0.857"/>
      <note number="8" values="48" ticks="740" durationTicks="95" ppq="96" velocity="0.889"/>
    </notes>
  </exercise>
  <exercise number="6">
    <scale>minor</scale>
    <bpm>168</bpm>
    <lowestNote>6</lowestNote>
    <tonalities>10</tonalities>
    <video name="6t.mp4" size="2161371" type="video/mp4" volume="0.5">0bedcf61badadc0d046e42be15a31023f6524c8a0a0601b95e02532ea62c1d58</video>
    <notes>
      <note number="1" values="18" ticks="64" durationTicks="66" ppq="96" velocity="0.843"/>
      <note number="2" values="28" ticks="158" durationTicks="57" ppq="96" velocity="0.906"/>
      <note number="3" values="38" ticks="255" durationTicks="71" ppq="96" velocity="0.862"/>
      <note number="4" values="38" ticks="352" durationTicks="71" ppq="96" velocity="0.932"/>
      <note number="5" values="38" ticks="447" durationTicks="47" ppq="96" velocity="0.842"/>
      <note number="6" values="28" ticks="497" durationTicks="91" ppq="96" velocity="0.872"/>
      <note number="7" values="18" ticks="591" durationTicks="181" ppq="96" velocity="0.862"/>
    </notes>
  </exercise>
  <exercise number="7">
    <scale>minor</scale>
    <bpm>168</bpm>
    <lowestNote>6</lowestNote>
    <tonalities>10</tonalities>
    <video name="7.1.mp4" size="2380822" type="video/mp4" volume="0.5">0f7e4a8af5f69528920e66cefa1c45f1a2ff11fe6e0967101ad0d2c910eb7b3b</video>
    <notes>
      <note number="1" values="38" ticks="97" durationTicks="68" ppq="96" velocity="0.843"/>
      <note number="2" values="38" ticks="183" durationTicks="86" ppq="96" velocity="0.906"/>
      <note number="3" values="28" ticks="287" durationTicks="74" ppq="96" velocity="0.957"/>
      <note number="4" values="28" ticks="390" durationTicks="31" ppq="96" velocity="0.892"/>
      <note number="5" values="28" ticks="440" durationTicks="95" ppq="96" velocity="0.967"/>
    </notes>
  </exercise>
  <exercise number="8">
    <scale>minor</scale>
    <bpm>168</bpm>
    <lowestNote>6</lowestNote>
    <tonalities>10</tonalities>
    <video name="7.2t.mp4" size="2306995" type="video/mp4" volume="1">076ea2f64d91f0984ea636771d5c8abd8ef680b7a0c40dcfbd74dc0f1af1aa4e</video>
    <notes>
      <note number="1" values="28" ticks="93" durationTicks="49" ppq="96" velocity="0.843"/>
      <note number="2" values="28" ticks="190" durationTicks="47" ppq="96" velocity="0.906"/>
      <note number="3" values="28" ticks="286" durationTicks="72" ppq="96" velocity="0.827"/>
      <note number="4" values="28" ticks="379" durationTicks="74" ppq="96" velocity="0.852"/>
      <note number="5" values="28" ticks="478" durationTicks="48" ppq="96" velocity="0.906"/>
      <note number="6" values="68" ticks="573" durationTicks="233" ppq="96" velocity="0.835"/>
      <note number="7" values="58" ticks="815" durationTicks="222" ppq="96" velocity="0.835"/>
    </notes>
  </exercise>
  <exercise number="9">
    <scale>minor</scale>
    <bpm>168</bpm>
    <lowestNote>6</lowestNote>
    <tonalities>10</tonalities>
    <video name="8t.mp4" size="2236432" type="video/mp4" volume="0.5">035e72531f3285ec5c0f9c5c951a8d284f617b6054c299196a73a4989125ff07</video>
    <notes>
      <note number="1" values="38" ticks="85" durationTicks="49" ppq="96" velocity="0.843"/>
      <note number="2" values="38" ticks="182" durationTicks="47" ppq="96" velocity="0.906"/>
      <note number="3" values="38" ticks="278" durationTicks="72" ppq="96" velocity="0.827"/>
      <note number="4" values="38" ticks="371" durationTicks="74" ppq="96" velocity="0.917"/>
      <note number="5" values="38" ticks="493" durationTicks="48" ppq="96" velocity="0.906"/>
      <note number="6" values="48" ticks="546" durationTicks="73" ppq="96" velocity="0.835"/>
      <note number="7" values="38" ticks="620" durationTicks="95" ppq="96" velocity="0.835"/>
    </notes>
  </exercise>
  <exercise number="10">
    <scale>minor</scale>
    <bpm>168</bpm>
    <lowestNote>6</lowestNote>
    <tonalities>10</tonalities>
    <video name="9t.mp4" size="1917654" type="video/mp4" volume="0.5">3ed88580ba263f96b99326fc2d913788bc8810063d62cc34d46e9bda5dda0707</video>
    <notes>
      <note number="1" values="28" ticks="114" durationTicks="49" ppq="96" velocity="0.843"/>
      <note number="2" values="28" ticks="207" durationTicks="47" ppq="96" velocity="0.906"/>
      <note number="3" values="38" ticks="304" durationTicks="51" ppq="96" velocity="0.827"/>
      <note number="4" values="48" ticks="398" durationTicks="62" ppq="96" velocity="0.844"/>
      <note number="5" values="68" ticks="503" durationTicks="94" ppq="96" velocity="0.882"/>
      <note number="6" values="58" ticks="648" durationTicks="99" ppq="96" velocity="0.835"/>
    </notes>
  </exercise>
  <exercise number="11">
    <scale>minor</scale>
    <bpm>168</bpm>
    <lowestNote>6</lowestNote>
    <tonalities>10</tonalities>
    <video name="10t.mp4" size="2087429" type="video/mp4" volume="0.5">8fe068ec5cdb5bc61389a8452dc2fc289aded79d78a6d5438f696ced029b4bc3</video>
    <notes>
      <note number="1" values="68" ticks="95" durationTicks="50" ppq="96" velocity="0.843"/>
      <note number="2" values="68" ticks="191" durationTicks="47" ppq="96" velocity="0.842"/>
      <note number="3" values="68" ticks="289" durationTicks="80" ppq="96" velocity="0.906"/>
      <note number="4" values="68" ticks="385" durationTicks="94" ppq="96" velocity="0.814"/>
      <note number="5" values="58" ticks="480" durationTicks="48" ppq="96" velocity="0.929"/>
      <note number="6" values="18" ticks="528" durationTicks="93" ppq="96" velocity="0.844"/>
      <note number="7" values="38" ticks="625" durationTicks="95" ppq="96" velocity="0.822"/>
    </notes>
  </exercise>
  <exercise number="12">
    <scale>chromaticminor</scale>
    <bpm>168</bpm>
    <lowestNote>6</lowestNote>
    <tonalities>10</tonalities>
    <video name="11t.mp4" size="2110325" type="video/mp4" volume="0.5">1e09dc8a1785cd0c24fafd406aef725e650ca162403e3cc8e672c321d15d6fda</video>
    <notes>
      <note number="1" values="58" ticks="59" durationTicks="59" ppq="96" velocity="0.843"/>
      <note number="2" values="498" ticks="154" durationTicks="145" ppq="96" velocity="0.906"/>
      <note number="3" values="28" ticks="347" durationTicks="123" ppq="96" velocity="0.834"/>
      <note number="4" values="48" ticks="536" durationTicks="107" ppq="96" velocity="0.849"/>
      <note number="5" values="38" ticks="729" durationTicks="101" ppq="96" velocity="0.922"/>
      <note number="6" values="18" ticks="897" durationTicks="52" ppq="96" velocity="0.906"/>
      <note number="7" values="18" ticks="972" durationTicks="95" ppq="96" velocity="0.829"/>
    </notes>
  </exercise>
</level>
